<svg xmlns="http://www.w3.org/2000/svg" xmlns:xlink="http://www.w3.org/1999/xlink" width="680" height="640" viewBox="0 0 680 640">
  <defs>
    <clipPath id="clip-Emoji_to_UTF-8_Conversion">
      <rect width="680" height="640"/>
    </clipPath>
  </defs>
  <g id="Emoji_to_UTF-8_Conversion" data-name="Emoji to UTF-8 Conversion" clip-path="url(#clip-Emoji_to_UTF-8_Conversion)">
    <rect width="680" height="640" fill="#fff"/>
    <g id="items" transform="translate(-6.48 27.75)" style="isolation: isolate">
      <g id="blend">
        <g id="g-root-cp_4_g-4_6h9lutrd9fn-fill" transform="translate(435 111)">
          <g id="cp_4_g-4_6h9lutrd9fn-fill-merged">
            <g id="Group_71" data-name="Group 71">
              <path id="Path_325" data-name="Path 325" d="M118,152a14,14,0,0,1-14,14,10,10,0,0,1-10-10V116a10,10,0,0,0-10-10H10V24A14,14,0,0,1,24,10H132a14,14,0,0,0-14,14,14,14,0,0,1,14-14,10,10,0,0,1,10,10V70H118v82" fill="#ffebf7" fill-rule="evenodd"/>
            </g>
          </g>
        </g>
        <g id="g-root-cp_3_g-3_1qbybc2trda18-fill" transform="translate(387 207)">
          <g id="cp_3_g-3_1qbybc2trda18-fill-merged">
            <g id="Group_72" data-name="Group 72">
              <path id="Path_326" data-name="Path 326" d="M118,152a14,14,0,0,1-14,14,10,10,0,0,1-10-10V116a10,10,0,0,0-10-10H10V24A14,14,0,0,1,24,10H132a14,14,0,0,0-14,14,14,14,0,0,1,14-14,10,10,0,0,1,10,10V60a10,10,0,0,0,10,10H118v82" fill="#ffeceb" fill-rule="evenodd"/>
            </g>
          </g>
        </g>
        <g id="g-root-cp_2_g-2_1lw4t7mtrdath-fill" transform="translate(339 303)">
          <g id="cp_2_g-2_1lw4t7mtrdath-fill-merged">
            <g id="Group_73" data-name="Group 73">
              <path id="Path_327" data-name="Path 327" d="M118,176a14,14,0,0,1-14,14,10,10,0,0,1-10-10V140a10,10,0,0,0-10-10H10V24A14,14,0,0,1,24,10H132a14,14,0,0,0-14,14,14,14,0,0,1,14-14,10,10,0,0,1,10,10V60a10,10,0,0,0,10,10H118V176" fill="#fff2e5" fill-rule="evenodd"/>
            </g>
          </g>
        </g>
        <g id="g-root-cp_1_g-1_1d0hsyqtrdbm6-fill" transform="translate(291 423)">
          <g id="cp_1_g-1_1d0hsyqtrdbm6-fill-merged">
            <g id="Group_74" data-name="Group 74">
              <path id="Path_328" data-name="Path 328" d="M118,142H10V24A14,14,0,0,1,24,10H132a14,14,0,0,0-14,14,14,14,0,0,1,14-14,10,10,0,0,1,10,10V60a10,10,0,0,0,10,10H118v72" fill="#fffbda" fill-rule="evenodd"/>
            </g>
          </g>
        </g>
        <g id="g-root-tx_emojitou_1d0hsyqtrdbm7-fill" transform="translate(171.5 3)">
          <g id="tx_emojitou_1d0hsyqtrdbm7-fill-merged">
            <g id="Group_75" data-name="Group 75">
              <text id="Emoji_to_UTF-8_Conversion-2" data-name="Emoji to UTF-8 Conversion" transform="translate(15.5 42.5)" fill="#484848" font-size="25" font-family="Roboto-Bold, Roboto" font-weight="700"><tspan x="0" y="0">Emoji to UTF-8 Conversion</tspan></text>
            </g>
          </g>
        </g>
        <g id="g-root-tx_utf8text_145h9sytrda0w-fill" transform="translate(279 123)">
          <g id="tx_utf8text_145h9sytrda0w-fill-merged">
            <g id="Group_76" data-name="Group 76">
              <text id="UTF-8_Text" data-name="UTF-8 Text" transform="translate(20.66 33.5)" fill="#de58a9" font-size="20" font-family="Roboto-Regular, Roboto"><tspan x="0" y="0">UTF-8 Text</tspan></text>
            </g>
          </g>
        </g>
        <g id="g-root-tx_4_v5gxyatrlrew-fill" transform="translate(477 141)">
          <g id="tx_4_v5gxyatrlrew-fill-merged">
            <g id="Group_77" data-name="Group 77">
              <text id="_4" data-name="4" transform="translate(14.97 42.5)" fill="#de58a9" font-size="25" font-family="Roboto-Regular, Roboto"><tspan x="0" y="0">4</tspan></text>
            </g>
          </g>
        </g>
        <g id="g-root-tx_encodeth_v9u9k2trdatl-fill" transform="translate(195 159)">
          <g id="tx_encodeth_v9u9k2trdatl-fill-merged">
            <g id="Group_78" data-name="Group 78">
              <g id="Group">
                <text id="Encode_the_bytes_into_UTF-8_" data-name="Encode the bytes into UTF-8 " transform="translate(13.53 27.5)" fill="#484848" font-size="15" font-family="Roboto-Regular, Roboto"><tspan x="0" y="0">Encode the bytes into UTF-8 </tspan></text>
                <text id="text_for_universal_readability." data-name="text for universal readability." transform="translate(12.6 45.5)" fill="#484848" font-size="15" font-family="Roboto-Regular, Roboto"><tspan x="0" y="0">text for universal readability.</tspan></text>
              </g>
            </g>
          </g>
        </g>
        <g id="g-root-tx_convertt_qq9wwytrlp1d-fill" transform="translate(183 219)">
          <g id="tx_convertt_qq9wwytrlp1d-fill-merged">
            <g id="Group_79" data-name="Group 79">
              <text id="Convert_to_Bytes" data-name="Convert to Bytes" transform="translate(17.48 33.5)" fill="#e55753" font-size="20" font-family="Roboto-Regular, Roboto"><tspan x="0" y="0">Convert to Bytes</tspan></text>
            </g>
          </g>
        </g>
        <g id="g-root-tx_3_1luvv1etrpwr3-fill" transform="translate(429 237)">
          <g id="tx_3_1luvv1etrpwr3-fill-merged">
            <g id="Group_80" data-name="Group 80">
              <text id="_3" data-name="3" transform="translate(14.97 42.5)" fill="#e55753" font-size="25" font-family="Roboto-Regular, Roboto"><tspan x="0" y="0">3</tspan></text>
            </g>
          </g>
        </g>
        <g id="g-root-tx_transfor_humwo2trlpu2-fill" transform="translate(159 255)">
          <g id="tx_transfor_humwo2trlpu2-fill-merged">
            <g id="Group_81" data-name="Group 81">
              <g id="Group-2" data-name="Group">
                <text id="Transform_the_selectors_" data-name="Transform the selectors " transform="translate(28.76 27.5)" fill="#484848" font-size="15" font-family="Roboto-Regular, Roboto"><tspan x="0" y="0">Transform the selectors </tspan></text>
                <text id="into_a_byte_representation." data-name="into a byte representation." transform="translate(14.52 45.5)" fill="#484848" font-size="15" font-family="Roboto-Regular, Roboto"><tspan x="0" y="0">into a byte representation.</tspan></text>
              </g>
            </g>
          </g>
        </g>
        <g id="g-root-tx_extracts_1cz8usitrpybk-fill" transform="translate(135 315)">
          <g id="tx_extracts_1cz8usitrpybk-fill-merged">
            <g id="Group_82" data-name="Group 82">
              <text id="Extract_Selectors" data-name="Extract Selectors" transform="translate(13.66 33.5)" fill="#de8431" font-size="20" font-family="Roboto-Regular, Roboto"><tspan x="0" y="0">Extract Selectors</tspan></text>
            </g>
          </g>
        </g>
        <g id="g-root-tx_isolatet_143lujmtrpz49-fill" transform="translate(111 351)">
          <g id="tx_isolatet_143lujmtrpz49-fill-merged">
            <g id="Group_83" data-name="Group 83">
              <g id="Group-3" data-name="Group">
                <text id="Isolate_the_specific_" data-name="Isolate the specific " transform="translate(62.61 30.5)" fill="#484848" font-size="15" font-family="Roboto-Regular, Roboto"><tspan x="0" y="0">Isolate the specific </tspan></text>
                <text id="selectors_that_define_each_" data-name="selectors that define each " transform="translate(16.12 48.5)" fill="#484848" font-size="15" font-family="Roboto-Regular, Roboto"><tspan x="0" y="0">selectors that define each </tspan></text>
                <text id="emoji." transform="translate(147.14 66.5)" fill="#484848" font-size="15" font-family="Roboto-Regular, Roboto"><tspan x="0" y="0">emoji.</tspan></text>
              </g>
            </g>
          </g>
        </g>
        <g id="g-root-tx_2_8ydfc2trrcwd-fill" transform="translate(381 345)">
          <g id="tx_2_8ydfc2trrcwd-fill-merged">
            <g id="Group_84" data-name="Group 84">
              <text id="_2" data-name="2" transform="translate(14.97 42.5)" fill="#de8431" font-size="25" font-family="Roboto-Regular, Roboto"><tspan x="0" y="0">2</tspan></text>
            </g>
          </g>
        </g>
        <g id="g-root-tx_emojivar_4ijx7mtrrdom-fill" transform="translate(87 435)">
          <g id="tx_emojivar_4ijx7mtrrdom-fill-merged">
            <g id="Group_85" data-name="Group 85">
              <text id="Emoji_Variations" data-name="Emoji Variations" transform="translate(19.21 33.5)" fill="#e0cb15" font-size="20" font-family="Roboto-Regular, Roboto"><tspan x="0" y="0">Emoji Variations</tspan></text>
            </g>
          </g>
        </g>
        <g id="g-root-tx_1_1lz96n6trsrnx-fill" transform="translate(333 453)">
          <g id="tx_1_1lz96n6trsrnx-fill-merged">
            <g id="Group_86" data-name="Group 86">
              <text id="_1" data-name="1" transform="translate(14.97 42.5)" fill="#e0cb15" font-size="25" font-family="Roboto-Regular, Roboto"><tspan x="0" y="0">1</tspan></text>
            </g>
          </g>
        </g>
        <g id="g-root-tx_identify_1uong0ytrrb4f-fill" transform="translate(63 471)">
          <g id="tx_identify_1uong0ytrrb4f-fill-merged">
            <g id="Group_87" data-name="Group 87">
              <g id="Group-4" data-name="Group">
                <text id="Identify_and_categorize_" data-name="Identify and categorize " transform="translate(36.15 27.5)" fill="#484848" font-size="15" font-family="Roboto-Regular, Roboto"><tspan x="0" y="0">Identify and categorize </tspan></text>
                <text id="different_emoji_variations." data-name="different emoji variations." transform="translate(17.96 45.5)" fill="#484848" font-size="15" font-family="Roboto-Regular, Roboto"><tspan x="0" y="0">different emoji variations.</tspan></text>
              </g>
            </g>
          </g>
        </g>
        <g id="g-root-cp_4_g-4_6h9lutrd9fn-stroke" transform="translate(435 111)">
          <g id="cp_4_g-4_6h9lutrd9fn-stroke">
            <g id="Group_88" data-name="Group 88">
              <path id="Path_329" data-name="Path 329" d="M118,70V24a14,14,0,0,1,14-14,10,10,0,0,1,10,10V70Zm0-46V76m14-66H24A14,14,0,0,0,10,24V76m0,0V94M118,76V94m0,0v58a14,14,0,0,1-14,14,10,10,0,0,1-10-10V116a10,10,0,0,0-10-10H10V94" fill="none" stroke="#de58a9" stroke-linecap="round" stroke-linejoin="round" stroke-width="2" fill-rule="evenodd"/>
            </g>
          </g>
        </g>
        <g id="g-root-cp_3_g-3_1qbybc2trda18-stroke" transform="translate(387 207)">
          <g id="cp_3_g-3_1qbybc2trda18-stroke">
            <g id="Group_89" data-name="Group 89">
              <path id="Path_330" data-name="Path 330" d="M152,70H118V24a14,14,0,0,1,14-14,10,10,0,0,1,10,10V60A10,10,0,0,0,152,70ZM118,24V76m14-66H24A14,14,0,0,0,10,24V76m0,0V94M118,76V94m0,0v58a14,14,0,0,1-14,14,10,10,0,0,1-10-10V116a10,10,0,0,0-10-10H10V94" fill="none" stroke="#e55753" stroke-linecap="round" stroke-linejoin="round" stroke-width="2" fill-rule="evenodd"/>
            </g>
          </g>
        </g>
        <g id="g-root-cp_2_g-2_1lw4t7mtrdath-stroke" transform="translate(339 303)">
          <g id="cp_2_g-2_1lw4t7mtrdath-stroke">
            <g id="Group_90" data-name="Group 90">
              <path id="Path_331" data-name="Path 331" d="M152,70H118V24a14,14,0,0,1,14-14,10,10,0,0,1,10,10V60A10,10,0,0,0,152,70ZM118,24V76m14-66H24A14,14,0,0,0,10,24V76m0,0v42M118,76v42m0,0v58a14,14,0,0,1-14,14,10,10,0,0,1-10-10V140a10,10,0,0,0-10-10H10V118" fill="none" stroke="#de8431" stroke-linecap="round" stroke-linejoin="round" stroke-width="2" fill-rule="evenodd"/>
            </g>
          </g>
        </g>
        <g id="g-root-cp_1_g-1_1d0hsyqtrdbm6-stroke" transform="translate(291 423)">
          <g id="cp_1_g-1_1d0hsyqtrdbm6-stroke">
            <g id="Group_91" data-name="Group 91">
              <path id="Path_332" data-name="Path 332" d="M152,70H118V24a14,14,0,0,1,14-14,10,10,0,0,1,10,10V60A10,10,0,0,0,152,70ZM118,24V82m14-72H24A14,14,0,0,0,10,24V82m0,0v48M118,82v48M10,130v12H118V130" fill="none" stroke="#a3a3a3" stroke-linecap="round" stroke-linejoin="round" stroke-width="2" fill-rule="evenodd"/>
            </g>
          </g>
        </g>
        <g id="g-root-ic_1_qu0rfmtrdblu-stroke" transform="translate(555 189)">
          <g id="ic_1_qu0rfmtrdblu-stroke">
            <g id="Group_92" data-name="Group 92">
              <path id="Path_333" data-name="Path 333" d="M18,33h8m-4,0V49M42,33h8m-4,0V49M30,49l8-16m0,16L30,33M13,11H55a1.959,1.959,0,0,1,2,2V55a1.959,1.959,0,0,1-2,2H13a1.959,1.959,0,0,1-2-2V13a1.959,1.959,0,0,1,2-2" fill="none" stroke="#de58a9" stroke-linecap="round" stroke-linejoin="round" stroke-width="2" fill-rule="evenodd"/>
            </g>
          </g>
        </g>
        <g id="g-root-ic_moni_3zd9etrlp1h-stroke" transform="translate(507 285)">
          <g id="ic_moni_3zd9etrlp1h-stroke">
            <g id="Group_93" data-name="Group 93">
              <path id="Path_334" data-name="Path 334" d="M20,54H48M33,50v4M11,44H57M27,19h1a1,1,0,0,1,1,1v7m-2,0h4m6,4h1a1,1,0,0,1,1,1v7m-2,0h4M17,31h1a1,1,0,0,1,1,1v7m-2,0h4M47,19h1a1,1,0,0,1,1,1v7m-2,0h4M21,25a2,2,0,0,1-4,0V21a2,2,0,0,1,4,0ZM31,37a2,2,0,0,1-4,0V33a2,2,0,0,1,4,0Zm20,0a2,2,0,0,1-4,0V33a2,2,0,0,1,4,0ZM41,25a2,2,0,0,1-4,0V21a2,2,0,0,1,4,0ZM14,14H54a2.938,2.938,0,0,1,3,3V47a2.938,2.938,0,0,1-3,3H14a2.938,2.938,0,0,1-3-3V17a2.938,2.938,0,0,1,3-3" fill="none" stroke="#e55753" stroke-linecap="round" stroke-linejoin="round" stroke-width="2" fill-rule="evenodd"/>
            </g>
          </g>
        </g>
        <g id="g-root-ic_star_zoetiatrpwqq-stroke" transform="translate(459 393)">
          <g id="ic_star_zoetiatrpwqq-stroke">
            <g id="Group_94" data-name="Group 94">
              <path id="Path_335" data-name="Path 335" d="M41.082,15.662a18,18,0,0,1-20.07,29.5M11.382,42.5H17.04V36.838m29.7-21.212H41.082v5.656M17.04,42.458a18,18,0,0,1,19.932-29.57M30.5,19.778,33.06,25.06h5a1.226,1.226,0,0,1,.862,2.14L34.59,31.724l2.4,5.522a1.308,1.308,0,0,1-1.862,1.638l-5.8-3.268-5.8,3.268a1.308,1.308,0,0,1-1.862-1.638l2.4-5.522L19.726,27.2a1.226,1.226,0,0,1,.856-2.14h5l2.562-5.282a1.322,1.322,0,0,1,2.352,0Zm11.292,22.01,2.958,2.958M56.06,51.818a3,3,0,0,1-4.242,4.242l-8.486-8.484a1,1,0,0,1,0-1.414l2.83-2.83a1,1,0,0,1,1.414,0Z" fill="none" stroke="#de8431" stroke-linecap="round" stroke-linejoin="round" stroke-width="2" fill-rule="evenodd"/>
            </g>
          </g>
        </g>
        <g id="g-root-ic_et_1cxdfj6trrdhm-stroke" transform="translate(411 501)">
          <g id="ic_et_1cxdfj6trrdhm-stroke">
            <g id="Group_95" data-name="Group 95">
              <path id="Path_336" data-name="Path 336" d="M32.4,35.8s0,2,1.6,2,1.6-2,1.6-2Zm8.6-9V24.2a3,3,0,0,0-6,0v-1a3,3,0,0,0-6,0v2.4a13.2,13.2,0,0,0-8,12c0,7.2,5.8,6,13,6s13,1,13-6A12.859,12.859,0,0,0,41,26.8ZM46.14,33a13.619,13.619,0,0,0,.8-6.8s-1-12,5-12c6.6,0,7,22-5.4,26.4M21.85,33a13.619,13.619,0,0,1-.8-6.8s1-12-5-12c-6.6,0-7,22,5.4,26.4M10,10,26,35.8l1,1M10,10,42,35.8l-1,1m4,11c0,3.4-5,6-11,6s-11-2.6-11-6m5-4.125V46.8m12-3.125V46.8" fill="none" stroke="#e0cb15" stroke-linecap="round" stroke-linejoin="round" stroke-width="2" fill-rule="evenodd"/>
            </g>
          </g>
        </g>
      </g>
    </g>
  </g>
</svg>
