<svg xmlns="http://www.w3.org/2000/svg" xmlns:xlink="http://www.w3.org/1999/xlink" width="780" height="760" viewBox="0 0 780 760">
  <defs>
    <clipPath id="clip-Emoji_Encoding_Process">
      <rect width="780" height="760"/>
    </clipPath>
  </defs>
  <g id="Emoji_Encoding_Process" data-name="Emoji Encoding Process" clip-path="url(#clip-Emoji_Encoding_Process)">
    <rect width="780" height="760" fill="#fff"/>
    <g id="items" transform="translate(35 33.75)" style="isolation: isolate">
      <g id="blend">
        <g id="g-root-tx_emojienc_1qdtqkiubkxs8-fill" transform="translate(243 3)">
          <g id="tx_emojienc_1qdtqkiubkxs8-fill-merged">
            <g id="Group_50" data-name="Group 50">
              <text id="Emoji_Encoding_Process-2" data-name="Emoji Encoding Process" transform="translate(12.58 42.5)" fill="#484848" font-size="25" font-family="Roboto-Bold, Roboto" font-weight="700"><tspan x="0" y="0">Emoji Encoding Process</tspan></text>
            </g>
          </g>
        </g>
        <g id="g-root-tx_textinpu_143lxoiubqioc-fill" transform="translate(273 123)">
          <g id="tx_textinpu_143lxoiubqioc-fill-merged">
            <g id="Group_51" data-name="Group 51">
              <text id="Text_Input" data-name="Text Input" transform="translate(13.49 33.5)" fill="#484848" font-size="20" font-family="Roboto-Bold, Roboto" font-weight="700"><tspan x="0" y="0">Text Input</tspan></text>
            </g>
          </g>
        </g>
        <g id="g-root-tx_theproce_1d2zpaaubkw7d-fill" transform="translate(393 117)">
          <g id="tx_theproce_1d2zpaaubkw7d-fill-merged">
            <g id="Group_52" data-name="Group 52">
              <text id="The_process_starts_with_text_input." data-name="The process starts with text 
input." transform="translate(12 27.5)" fill="#484848" font-size="15" font-family="Roboto-Regular, Roboto"><tspan x="0" y="0">The process starts with text </tspan><tspan x="0" y="18">input.</tspan></text>
            </g>
          </g>
        </g>
        <g id="g-root-tx_thetexti_4lods2ubqk90-fill" transform="translate(153 237)">
          <g id="tx_thetexti_4lods2ubqk90-fill-merged">
            <g id="Group_53" data-name="Group 53">
              <g id="Group">
                <text id="The_text_is_converted_into_UTF-8_" data-name="The text is converted into UTF-8 " transform="translate(12.25 27.5)" fill="#484848" font-size="15" font-family="Roboto-Regular, Roboto"><tspan x="0" y="0">The text is converted into UTF-8 </tspan></text>
                <text id="bytes." transform="translate(184 45.5)" fill="#484848" font-size="15" font-family="Roboto-Regular, Roboto"><tspan x="0" y="0">bytes.</tspan></text>
              </g>
            </g>
          </g>
        </g>
        <g id="g-root-tx_convertt_8ipuubqkga-fill" transform="translate(393 243)">
          <g id="tx_convertt_8ipuubqkga-fill-merged">
            <g id="Group_54" data-name="Group 54">
              <text id="Convert_to_UTF-8_Bytes" data-name="Convert to UTF-8 Bytes" transform="translate(12 33.5)" fill="#484848" font-size="20" font-family="Roboto-Bold, Roboto" font-weight="700"><tspan x="0" y="0">Convert to UTF-8 Bytes</tspan></text>
            </g>
          </g>
        </g>
        <g id="g-root-tx_applyvar_v4uk02ubupl4-fill" transform="translate(129 363)">
          <g id="tx_applyvar_v4uk02ubupl4-fill-merged">
            <g id="Group_55" data-name="Group 55">
              <text id="Apply_Variation_Selectors" data-name="Apply Variation Selectors" transform="translate(20.82 33.5)" fill="#484848" font-size="20" font-family="Roboto-Bold, Roboto" font-weight="700"><tspan x="0" y="0">Apply Variation Selectors</tspan></text>
            </g>
          </g>
        </g>
        <g id="g-root-tx_variatio_1um5jnmubqhvo-fill" transform="translate(393 357)">
          <g id="tx_variatio_1um5jnmubqhvo-fill-merged">
            <g id="Group_56" data-name="Group 56">
              <text id="Variation_selectors_are_applied_to_the_bytes." data-name="Variation selectors are applied 
to the bytes." transform="translate(12 27.5)" fill="#484848" font-size="15" font-family="Roboto-Regular, Roboto"><tspan x="0" y="0">Variation selectors are applied </tspan><tspan x="0" y="18">to the bytes.</tspan></text>
            </g>
          </g>
        </g>
        <g id="g-root-tx_theeleme_hte1mqubur63-fill" transform="translate(153 477)">
          <g id="tx_theeleme_hte1mqubur63-fill-merged">
            <g id="Group_57" data-name="Group 57">
              <g id="Group-2" data-name="Group">
                <text id="The_elements_are_appended_to_" data-name="The elements are appended to " transform="translate(21.86 27.5)" fill="#484848" font-size="15" font-family="Roboto-Regular, Roboto"><tspan x="0" y="0">The elements are appended to </tspan></text>
                <text id="form_the_emoji." data-name="form the emoji." transform="translate(122.57 45.5)" fill="#484848" font-size="15" font-family="Roboto-Regular, Roboto"><tspan x="0" y="0">form the emoji.</tspan></text>
              </g>
            </g>
          </g>
        </g>
        <g id="g-root-tx_appendel_73qo2uburrf-fill" transform="translate(393 483)">
          <g id="tx_appendel_73qo2uburrf-fill-merged">
            <g id="Group_58" data-name="Group 58">
              <text id="Append_Elements" data-name="Append Elements" transform="translate(12 33.5)" fill="#484848" font-size="20" font-family="Roboto-Bold, Roboto" font-weight="700"><tspan x="0" y="0">Append Elements</tspan></text>
            </g>
          </g>
        </g>
        <g id="g-root-tx_complete_zs5ubmub9pn0-fill" transform="translate(81 603)">
          <g id="tx_complete_zs5ubmub9pn0-fill-merged">
            <g id="Group_59" data-name="Group 59">
              <text id="Complete_Emoji_Representation" data-name="Complete Emoji Representation" transform="translate(11.91 33.5)" fill="#484848" font-size="20" font-family="Roboto-Bold, Roboto" font-weight="700"><tspan x="0" y="0">Complete Emoji Representation</tspan></text>
            </g>
          </g>
        </g>
        <g id="g-root-tx_thefinal_1lxdrcyubupzi-fill" transform="translate(393 603)">
          <g id="tx_thefinal_1lxdrcyubupzi-fill-merged">
            <g id="Group_60" data-name="Group 60">
              <text id="The_final_emoji_is_created." data-name="The final emoji is created." transform="translate(12 30.5)" fill="#484848" font-size="15" font-family="Roboto-Regular, Roboto"><tspan x="0" y="0">The final emoji is created.</tspan></text>
            </g>
          </g>
        </g>
        <g id="g-root-cp_2_sign-2_metqdeubkx6z-stroke" transform="translate(381 207)">
          <g id="cp_2_sign-2_metqdeubkx6z-stroke">
            <g id="Group_61" data-name="Group 61">
              <path id="Path_315" data-name="Path 315" d="M268,106H10m0-96H268m0,0a48,48,0,0,1,0,96M10,106V10" fill="none" stroke="#3cc583" stroke-linecap="round" stroke-linejoin="round" stroke-width="2" fill-rule="evenodd"/>
            </g>
          </g>
        </g>
        <g id="g-root-cp_4_sign-4_hz088yubkxz8-stroke" transform="translate(381 447)">
          <g id="cp_4_sign-4_hz088yubkxz8-stroke">
            <g id="Group_62" data-name="Group 62">
              <path id="Path_316" data-name="Path 316" d="M220,106H10m0-96H220m0,0a48,48,0,0,1,0,96M10,106V10" fill="none" stroke="#1eabda" stroke-linecap="round" stroke-linejoin="round" stroke-width="2" fill-rule="evenodd"/>
            </g>
          </g>
        </g>
        <g id="g-root-cp_1_sign-1_93zp36ubkvm5-stroke" transform="translate(195 87)">
          <g id="cp_1_sign-1_93zp36ubkvm5-stroke">
            <g id="Group_63" data-name="Group 63">
              <path id="Path_317" data-name="Path 317" d="M58,10H196m0,96H58m0,0a48,48,0,0,1,0-96m138,0v96" fill="none" stroke="#4e88e7" stroke-linecap="round" stroke-linejoin="round" stroke-width="2" fill-rule="evenodd"/>
            </g>
          </g>
        </g>
        <g id="g-root-cp_3_sign-3_4o66yqubkwee-stroke" transform="translate(51 327)">
          <g id="cp_3_sign-3_4o66yqubkwee-stroke">
            <g id="Group_64" data-name="Group 64">
              <path id="Path_318" data-name="Path 318" d="M58,10H340m0,96H58m0,0a48,48,0,0,1,0-96m282,0v96" fill="none" stroke="#92bd39" stroke-linecap="round" stroke-linejoin="round" stroke-width="2" fill-rule="evenodd"/>
            </g>
          </g>
        </g>
        <g id="g-root-cp_5_sign-5_1utn8oyubkwzz-stroke" transform="translate(3 567)">
          <g id="cp_5_sign-5_1utn8oyubkwzz-stroke">
            <g id="Group_65" data-name="Group 65">
              <path id="Path_319" data-name="Path 319" d="M58,10H388m0,96H58m0,0a48,48,0,0,1,0-96m330,0v96" fill="none" stroke="#7f64ea" stroke-linecap="round" stroke-linejoin="round" stroke-width="2" fill-rule="evenodd"/>
            </g>
          </g>
        </g>
        <g id="g-root-ic_type_1hhk98iubuqrr-stroke" transform="translate(225 117)">
          <g id="ic_type_1hhk98iubuqrr-stroke">
            <g id="Group_66" data-name="Group 66">
              <path id="Path_320" data-name="Path 320" d="M14.665,26.125h-1.83A1.5,1.5,0,0,1,11.38,24.26l2.25-9a1.5,1.5,0,0,1,1.455-1.135H41.243A1.5,1.5,0,0,1,42.7,15.26l2.25,9a1.5,1.5,0,0,1-1.455,1.865H41.665m-26.25-3h1.5m1.5-3h1.5m3,0h1.5m3,0h1.5m3,0h1.5m3,0h1.5m-19.5-3h1.5m3,0h1.5m3,0h1.5m3,0h1.5m3,0h1.5m-18,6h16.5m3,0h1.5M22.64,29.818l.423-1.475a1.151,1.151,0,1,0-2.212-.633l-.42,1.477m-1.264,4.424,1.264-4.424a1.152,1.152,0,0,0-2.214-.633l-.63,2.211m5.442,10.359c1.615-1.585,3.291-3.48,3.291-3.48a.92.92,0,0,0-.96-1.553l-2.61,1.729,2.1-7.372a1.15,1.15,0,1,0-2.212-.632l-1.262,4.424m-4.736-.158.947-3.318a1.149,1.149,0,0,0-2.211-.628l-2.1,7.371a3.827,3.827,0,0,0,.75,3.525M33.688,29.818l-.422-1.475a1.151,1.151,0,0,1,2.211-.633l.42,1.477m1.264,4.424L35.9,29.188a1.152,1.152,0,0,1,2.214-.633l.63,2.211M33.3,41.125c-1.615-1.585-3.291-3.48-3.291-3.48a.92.92,0,0,1,.96-1.553l2.613,1.729-2.1-7.372a1.15,1.15,0,1,1,2.212-.632l1.263,4.424m4.731-.158-.946-3.318a1.15,1.15,0,1,1,2.212-.628l2.1,7.371a3.826,3.826,0,0,1-.75,3.525" fill="none" stroke="#4e88e7" stroke-linecap="round" stroke-linejoin="round" stroke-width="2" fill-rule="evenodd"/>
            </g>
          </g>
        </g>
        <g id="g-root-ic_code_zrj6wyubkxsa-stroke" transform="translate(621 237)">
          <g id="ic_code_zrj6wyubkxsa-stroke">
            <g id="Group_67" data-name="Group 67">
              <path id="Path_321" data-name="Path 321" d="M11.125,44.875c2.24,0,4.48,0,6.72-2.25a6.854,6.854,0,0,0,10.155,0,6.854,6.854,0,0,0,10.155,0c2.24,2.25,4.48,2.25,6.72,2.25m-33.75-5.55c2.24,0,4.48,0,6.72-2.25a6.854,6.854,0,0,0,10.155,0,6.854,6.854,0,0,0,10.155,0c2.24,2.25,4.48,2.25,6.72,2.25M10,10m3.415,2.862V18.98M10,10m1.376,4.391h.51a1.53,1.53,0,0,0,1.53-1.53h0m2.039,6.118H11.376M10,10,20.582,24.3v6.118M10,10m8.543,15.826h.51a1.53,1.53,0,0,0,1.53-1.53h0m2.039,6.118H18.543M10,10,27.963,24.3v6.118M10,10,25.924,25.826h.51a1.529,1.529,0,0,0,1.53-1.53h0M30,30.415H25.924M10,10m25.167,2.862V18.98M10,10m23.128,4.391h.51a1.53,1.53,0,0,0,1.53-1.53h0m2.04,6.118H33.128M18.454,14.9v2.039a2.039,2.039,0,1,0,4.079,0V14.9a2.039,2.039,0,1,0-4.079,0ZM11.376,26.336v2.039a2.039,2.039,0,1,0,4.079,0V26.336a2.039,2.039,0,0,0-4.079,0Zm21.752,0v2.039a2.039,2.039,0,1,0,4.079,0V26.336a2.039,2.039,0,0,0-4.079,0Zm7.418,0v2.039a2.039,2.039,0,1,0,4.079,0V26.336a2.039,2.039,0,0,0-4.079,0ZM25.747,14.9v2.039a2.039,2.039,0,0,0,4.079,0V14.9a2.039,2.039,0,0,0-4.079,0Zm14.8,0v2.039a2.039,2.039,0,0,0,4.079,0V14.9a2.039,2.039,0,0,0-4.079,0Z" fill="none" stroke="#3cc583" stroke-linecap="round" stroke-linejoin="round" stroke-width="2" fill-rule="evenodd"/>
            </g>
          </g>
        </g>
        <g id="g-root-ic_subt_146qb42ubqkn8-stroke" transform="translate(81 357)">
          <g id="ic_subt_146qb42ubqkn8-stroke">
            <g id="Group_68" data-name="Group 68">
              <path id="Path_322" data-name="Path 322" d="M17.5,11.5v3m-3,3h-3m3,21h-3m27-27v3m-21,27v3m21-3v3m6-27h-3m3,21h-3m-24-21h21v21h-21ZM22,28a6,6,0,1,0,6-6A6,6,0,0,0,22,28Zm3,0h6" fill="none" stroke="#92bd39" stroke-linecap="round" stroke-linejoin="round" stroke-width="2" fill-rule="evenodd"/>
            </g>
          </g>
        </g>
        <g id="g-root-ic_3_1lqijequbqioe-stroke" transform="translate(573 477)">
          <g id="ic_3_1lqijequbqioe-stroke">
            <g id="Group_69" data-name="Group 69">
              <path id="Path_323" data-name="Path 323" d="M24.577,35.137H14.234a3.485,3.485,0,0,1-3.484-3.485V22.944H15.1a2.613,2.613,0,0,1,5.226,0h4.35v7.3m-13.926-7.3V14.234a3.484,3.484,0,0,1,3.484-3.484h10.45v3.484a2.613,2.613,0,1,1,0,5.224v3.485m8.976,0H24.685m0-12.194h9.58a3.485,3.485,0,0,1,3.485,3.484v8.709M27.25,36.25a9,9,0,1,0,9-9,9,9,0,0,0-9,9m11.25,3.9a4.5,4.5,0,0,1-4.5,0m2.25-12.9a2.25,2.25,0,0,1,0,4.5M40.188,34a.563.563,0,0,1,.563.563m-1.125,0A.563.563,0,0,1,40.188,34m0,1.125a.563.563,0,0,1-.562-.562m1.125,0a.562.562,0,0,1-.562.563M32.313,34a.563.563,0,0,1,.563.563m-1.125,0A.563.563,0,0,1,32.313,34m0,1.125a.562.562,0,0,1-.562-.562m1.125,0a.562.562,0,0,1-.562.563" fill="none" stroke="#1eabda" stroke-linecap="round" stroke-linejoin="round" stroke-width="2" fill-rule="evenodd"/>
            </g>
          </g>
        </g>
        <g id="g-root-ic_et_1lse1tuuburrh-stroke" transform="translate(33 597)">
          <g id="ic_et_1lse1tuuburrh-stroke">
            <g id="Group_70" data-name="Group 70">
              <path id="Path_324" data-name="Path 324" d="M26.8,29.35s0,1.5,1.2,1.5,1.2-1.5,1.2-1.5Zm6.45-6.75V20.65a2.25,2.25,0,0,0-4.5,0V19.9a2.25,2.25,0,0,0-4.5,0v1.8a9.9,9.9,0,0,0-6,9c0,5.4,4.35,4.5,9.75,4.5s9.75.75,9.75-4.5A9.644,9.644,0,0,0,33.25,22.6ZM37.1,27.25a10.214,10.214,0,0,0,.6-5.1s-.75-9,3.75-9c4.95,0,5.25,16.5-4.05,19.8m-18.517-5.7a10.214,10.214,0,0,1-.6-5.1s.75-9-3.75-9c-4.95,0-5.25,16.5,4.05,19.8M10,10,22,29.35l.75.75M10,10,34,29.35l-.75.75m3,8.25c0,2.55-3.75,4.5-8.25,4.5s-8.25-1.95-8.25-4.5m3.75-3.094V37.6m9-2.344V37.6" fill="none" stroke="#7f64ea" stroke-linecap="round" stroke-linejoin="round" stroke-width="2" fill-rule="evenodd"/>
            </g>
          </g>
        </g>
      </g>
    </g>
  </g>
</svg>
